<svg width="23" height="18" viewBox="0 0 23 18" fill="none" xmlns="http://www.w3.org/2000/svg">
<path fill-rule="evenodd" clip-rule="evenodd" d="M5.72977 5.82656L1.92165 9L5.72977 12.1734C5.94169 12.3431 6.04539 12.614 6.00093 12.8818C5.95647 13.1496 5.77079 13.3724 5.51542 13.4645C5.26006 13.5566 4.97488 13.5034 4.76977 13.3256L0.269771 9.57563C0.0988284 9.43313 -3.93391e-06 9.22208 -3.93391e-06 8.99953C-3.93391e-06 8.77699 0.0988284 8.56593 0.269771 8.42344L4.76977 4.67344C5.0882 4.40834 5.56124 4.45157 5.82633 4.77C6.09143 5.08843 6.0482 5.56147 5.72977 5.82656ZM22.2298 8.42344L17.7298 4.67344C17.5238 4.50195 17.242 4.45338 16.9905 4.54603C16.7389 4.63867 16.556 4.85846 16.5105 5.12259C16.4649 5.38672 16.5638 5.65508 16.7698 5.82656L20.5779 9L16.7698 12.1734C16.5579 12.3431 16.4541 12.614 16.4986 12.8818C16.5431 13.1496 16.7288 13.3724 16.9841 13.4645C17.2395 13.5566 17.5247 13.5034 17.7298 13.3256L22.2298 9.57563C22.4007 9.43313 22.4995 9.22208 22.4995 8.99953C22.4995 8.77699 22.4007 8.56593 22.2298 8.42344ZM14.5057 0.0450001C14.3187 -0.0228841 14.1124 -0.0137088 13.9322 0.0705073C13.752 0.154723 13.6126 0.307081 13.5448 0.494062L7.54477 16.9941C7.4766 17.1812 7.48562 17.3877 7.56986 17.5681C7.6541 17.7485 7.80663 17.8881 7.99383 17.9559C8.076 17.9851 8.16257 18 8.24977 18C8.5653 18 8.8471 17.8025 8.95477 17.5059L14.9548 1.00594C15.0227 0.81896 15.0135 0.612674 14.9293 0.432462C14.845 0.252249 14.6927 0.112875 14.5057 0.0450001Z" fill="white"/>
</svg>
